<svg id="visual" viewBox="0 0 900 600" width="900" height="600" xmlns="http://www.w3.org/2000/svg" xmlns:xlink="http://www.w3.org/1999/xlink" version="1.1"><rect x="0" y="0" width="900" height="600" fill="#002233"></rect><path d="M0 476L21.5 483.8C43 491.7 86 507.3 128.8 494.3C171.7 481.3 214.3 439.7 257.2 428.3C300 417 343 436 385.8 449.7C428.7 463.3 471.3 471.7 514.2 460.3C557 449 600 418 642.8 403C685.7 388 728.3 389 771.2 400.3C814 411.7 857 433.3 878.5 444.2L900 455L900 601L878.5 601C857 601 814 601 771.2 601C728.3 601 685.7 601 642.8 601C600 601 557 601 514.2 601C471.3 601 428.7 601 385.8 601C343 601 300 601 257.2 601C214.3 601 171.7 601 128.8 601C86 601 43 601 21.5 601L0 601Z" fill="#0066FF" stroke-linecap="round" stroke-linejoin="miter"></path></svg>